# xmcd
#
# Track frame offsets:
#	150
#	12867
#	30635
#	48771
#	64659
#	85264
#	102332
#	115987
#	136605
#	157805
#	178733
#	193013
#	206788
#	223094
#	239295
#	256734
#	279275
#	298203
#	312184
#	328111
#
# Disc length: 4724 seconds
#
# Revision: 1
# Processed by: cddbd v1.5.2PL0 Copyright (c) Steve Scherf et al.
# Submitted via: audiograbber 1.83.01
#
DISCID=1b127214
DTITLE=Various 1000% - Latino Superstars vol.2
DYEAR=2003
DGENRE=Latin
TTITLE0=Los Lobos - La Bamba
TTITLE1=Enrique Iglesias - Cosas Del Amor
TTITLE2=Ricky Martin and Madonna - Be Careful
TTITLE3=Cesaria Evora - Cintuaro tem Mele
TTITLE4=George Lamond - Que Te Vas
TTITLE5=Julio Iglesias - Baila Morena
TTITLE6=Natalia Oreiro - Gitano Corazon
TTITLE7=Jennifer Lopez and Mark Anthony - No Me Ames
TTITLE8=Carlos Santana - Flor D'Luna
TTITLE9=Foxy - Elidi' Bo
TTITLE10=Christina Aguilera - Una Mujer
TTITLE11=Shakira - To Dejo Madrid
TTITLE12=No Mercy - Bonita
TTITLE13=Paulina Rubio - Todo Mi Amor
TTITLE14=Julio Iglesias - Nostalgie
TTITLE15=Frank Reyes - Como Llora Mi Alma
TTITLE16=Enrique Iglesias - Ruelta Rusa
TTITLE17=Cesaria Evora - Sabine Largam
TTITLE18=Julio Iglesias - Marawto
TTITLE19=Carlos Santana - (Da Le) Yaleo
EXTD=
EXTT0=
EXTT1=
EXTT2=
EXTT3=
EXTT4=
EXTT5=
EXTT6=
EXTT7=
EXTT8=
EXTT9=
EXTT10=
EXTT11=
EXTT12=
EXTT13=
EXTT14=
EXTT15=
EXTT16=
EXTT17=
EXTT18=
EXTT19=
PLAYORDER=
